<svg width="16" height="16" viewBox="0 0 16 16" fill="none" xmlns="http://www.w3.org/2000/svg">
<path d="M8 6V7.33333M8 10V10.0067" stroke="#F44336" stroke-linecap="round" stroke-linejoin="round"/>
<path d="M3.33411 12.6666H12.6674C12.885 12.6651 13.0988 12.6103 13.2904 12.5072C13.4819 12.404 13.6453 12.2556 13.7663 12.0748C13.8872 11.894 13.9621 11.6863 13.9844 11.4699C14.0067 11.2535 13.9757 11.0349 13.8941 10.8333L9.16078 2.6666C9.04547 2.45819 8.87645 2.28448 8.67128 2.16352C8.46611 2.04256 8.23228 1.97876 7.99411 1.97876C7.75594 1.97876 7.52211 2.04256 7.31694 2.16352C7.11177 2.28448 6.94275 2.45819 6.82744 2.6666L2.09411 10.8333C2.01407 11.0303 1.98233 11.2437 2.00154 11.4555C2.02076 11.6673 2.09036 11.8714 2.20455 12.0509C2.31873 12.2303 2.47418 12.3798 2.65793 12.4869C2.84167 12.594 3.04837 12.6556 3.26078 12.6666" stroke="#F44336" stroke-linecap="round" stroke-linejoin="round"/>
</svg>
